# xmcd
#
# Track frame offsets:
#	187
#	10370
#	20020
#	35925
#	57012
#	71550
#	93412
#	110507
#	135275
#	148550
#	154187
#	160175
#	172737
#	177087
#	190262
#	204512
#	222192
#	235000
#	244775
#	281612
#	289775
#	309437
#
# Disc length: 4273 seconds
#
# Revision: 1
# Processed by: cddbd v1.5.1PL0 Copyright (c) Steve Scherf et al.
# Submitted via: CDex 1.50Beta5
#
DISCID=3310af16
DTITLE=ETC - お茶の間クラッシック
DYEAR=1900
DGENRE=
TTITLE0=スタッフサービス
TTITLE1=アリナミンV
TTITLE2=ザカリー
TTITLE3=キューピードレッシング
TTITLE4=液晶テレビ
TTITLE5=ダイナーズクラブ
TTITLE6=BlackBlack
TTITLE7=資生堂
TTITLE8=NICOSカード
TTITLE9=花王ハイター
TTITLE10=ナデイア
TTITLE11=サンヨーエアコン
TTITLE12=大田胃散
TTITLE13=環境大臣
TTITLE14=烏龍茶
TTITLE15=TAP
TTITLE16=オペル
TTITLE17=ヘーベルハウス
TTITLE18=トッカータとフーガ
TTITLE19=タイプライター
TTITLE20=メサイヤ
TTITLE21=剣の舞
EXTD=
EXTT0=
EXTT1=
EXTT2=
EXTT3=
EXTT4=
EXTT5=
EXTT6=
EXTT7=
EXTT8=
EXTT9=
EXTT10=
EXTT11=
EXTT12=
EXTT13=
EXTT14=
EXTT15=
EXTT16=
EXTT17=
EXTT18=
EXTT19=
EXTT20=
EXTT21=
PLAYORDER=
